<svg xmlns="http://www.w3.org/2000/svg" viewBox="0 0 512 512">
  <rect width="512" height="512" rx="100" fill="#1e3a8a"/>
  <!-- Scissors icon -->
  <path d="M211.3 226.7l50.3-50.3-64-64c-11.8-11.8-31.4-11.8-43.2 0l-16 16c-11.8 11.8-11.8 31.4 0 43.2l62.9 62.9-57.1 57.1c-15.6 15.6-40.9 15.6-56.6 0l-33.9-33.9C38.1 242.1 38.1 216.8 53.7 201.2L201.2 53.7c15.6-15.6 40.9-15.6 56.6 0l33.9 33.9c15.6 15.6 15.6 40.9 0 56.6l-57.1 57.1 62.9 62.9c11.8-11.8 31.4-11.8 43.2 0l16 16c11.8 11.8 11.8 31.4 0 43.2l-64-64 50.3-50.3c15.6 15.6 40.9 15.6 56.6 0l90.5-90.5c15.6-15.6 15.6-40.9 0-56.6l-22.6-22.6c-15.6-15.6-40.9-15.6-56.6 0l-90.5 90.5c-15.6 15.6-15.6 40.9 0 56.6-7.8-7.8-20.5-7.8-28.3 0L240 288.7 151.8 376.9c7.8-7.8 20.5-7.8 28.3 0 15.6 15.6 15.6 40.9 0 56.6l90.5 90.5c15.6 15.6 40.9 15.6 56.6 0l22.6-22.6c15.6-15.6 15.6-40.9 0-56.6l-90.5-90.5c-15.6-15.6-40.9-15.6-56.6 0l-50.3 50.3z" fill="white" transform="translate(64, 64) scale(0.75)" />
  <circle cx="160" cy="352" r="32" fill="none" stroke="white" stroke-width="32" />
  <circle cx="352" cy="160" r="32" fill="none" stroke="white" stroke-width="32" />
</svg>
